<svg width="400" height="300" viewBox="0 0 400 300" fill="none" xmlns="http://www.w3.org/2000/svg">
  <defs>
    <linearGradient id="chartLine" x1="0%" y1="100%" x2="100%" y2="0%">
      <stop offset="0%" style="stop-color:#F7931A;stop-opacity:1" />
      <stop offset="50%" style="stop-color:#FCD535;stop-opacity:1" />
      <stop offset="100%" style="stop-color:#F7931A;stop-opacity:1" />
    </linearGradient>
    <linearGradient id="volumeBars" x1="0%" y1="100%" x2="0%" y2="0%">
      <stop offset="0%" style="stop-color:#F7931A;stop-opacity:0.3" />
      <stop offset="100%" style="stop-color:#FCD535;stop-opacity:0.6" />
    </linearGradient>
    <radialGradient id="chartGlow">
      <stop offset="0%" style="stop-color:#FCD535;stop-opacity:0.3" />
      <stop offset="100%" style="stop-color:#0B0E11;stop-opacity:0" />
    </radialGradient>
  </defs>
  
  <circle cx="200" cy="140" r="140" fill="url(#chartGlow)"/>
  
  <rect x="30" y="30" width="340" height="240" rx="10" fill="#0B0E11" opacity="0.4"/>
  
  <line x1="40" y1="70" x2="360" y2="70" stroke="#2B3139" stroke-width="0.5" opacity="0.4"/>
  <line x1="40" y1="100" x2="360" y2="100" stroke="#2B3139" stroke-width="0.5" opacity="0.4"/>
  <line x1="40" y1="130" x2="360" y2="130" stroke="#2B3139" stroke-width="0.5" opacity="0.4"/>
  <line x1="40" y1="160" x2="360" y2="160" stroke="#2B3139" stroke-width="0.5" opacity="0.4"/>
  <line x1="40" y1="190" x2="360" y2="190" stroke="#2B3139" stroke-width="0.5" opacity="0.4"/>
  
  <rect x="50" y="200" width="12" height="25" fill="url(#volumeBars)" opacity="0.5"/>
  <rect x="70" y="195" width="12" height="30" fill="url(#volumeBars)" opacity="0.5"/>
  <rect x="90" y="188" width="12" height="37" fill="url(#volumeBars)" opacity="0.6"/>
  <rect x="110" y="180" width="12" height="45" fill="url(#volumeBars)" opacity="0.6"/>
  <rect x="130" y="185" width="12" height="40" fill="url(#volumeBars)" opacity="0.5"/>
  <rect x="150" y="175" width="12" height="50" fill="url(#volumeBars)" opacity="0.7"/>
  <rect x="170" y="170" width="12" height="55" fill="url(#volumeBars)" opacity="0.7"/>
  <rect x="190" y="165" width="12" height="60" fill="url(#volumeBars)" opacity="0.8"/>
  <rect x="210" y="160" width="12" height="65" fill="url(#volumeBars)" opacity="0.8"/>
  <rect x="230" y="168" width="12" height="57" fill="url(#volumeBars)" opacity="0.7"/>
  <rect x="250" y="155" width="12" height="70" fill="url(#volumeBars)" opacity="0.8"/>
  <rect x="270" y="150" width="12" height="75" fill="url(#volumeBars)" opacity="0.9"/>
  <rect x="290" y="145" width="12" height="80" fill="url(#volumeBars)" opacity="0.9"/>
  <rect x="310" y="140" width="12" height="85" fill="url(#volumeBars)" opacity="1"/>
  <rect x="330" y="135" width="12" height="90" fill="url(#volumeBars)" opacity="1"/>
  
  <path d="M 50 180 L 70 175 L 90 165 L 110 150 L 130 155 L 150 140 L 170 125 L 190 115 L 210 100 L 230 108 L 250 90 L 270 75 L 290 65 L 310 55 L 330 48 L 350 45" 
        stroke="url(#chartLine)" 
        stroke-width="3.5" 
        fill="none" 
        stroke-linecap="round"
        stroke-linejoin="round"
        filter="drop-shadow(0 0 10px rgba(252, 213, 53, 0.7))"/>
  
  <g filter="drop-shadow(0 0 6px rgba(252, 213, 53, 1))">
    <circle cx="110" cy="150" r="4" fill="#FCD535"/>
    <circle cx="170" cy="125" r="4" fill="#FCD535"/>
    <circle cx="230" cy="108" r="4" fill="#FCD535"/>
    <circle cx="290" cy="65" r="4" fill="#F7931A"/>
    <circle cx="350" cy="45" r="4" fill="#F7931A"/>
  </g>
  
  <g opacity="0.8">
    <rect x="320" y="50" width="35" height="25" rx="4" fill="#0B0E11" stroke="#FCD535" stroke-width="1.5"/>
    <path d="M 325 60 L 330 60 L 332 62 L 334 58 L 336 60 L 340 60" stroke="#FCD535" stroke-width="1.5" fill="none" stroke-linecap="round"/>
    <circle cx="333" cy="67" r="1.5" fill="#FCD535"/>
  </g>
  
  <g opacity="0.8">
    <rect x="320" y="85" width="35" height="25" rx="4" fill="#0B0E11" stroke="#F7931A" stroke-width="1.5"/>
    <path d="M 325 95 L 330 95 L 332 92 L 334 96 L 336 95 L 340 95" stroke="#F7931A" stroke-width="1.5" fill="none" stroke-linecap="round"/>
    <circle cx="333" cy="102" r="1.5" fill="#F7931A"/>
  </g>
  
  <line x1="40" y1="225" x2="350" y2="225" stroke="#F7931A" stroke-width="2" opacity="0.5"/>
  <line x1="40" y1="40" x2="40" y2="225" stroke="#F7931A" stroke-width="2" opacity="0.5"/>
  
  <g opacity="0.6">
    <rect x="45" y="240" width="30" height="20" rx="3" fill="#0B0E11" stroke="#FCD535" stroke-width="1"/>
    <path d="M 51 247 L 54 250 L 57 247 L 60 252 L 63 249 L 66 252 L 69 248" stroke="#FCD535" stroke-width="1.2" fill="none" stroke-linecap="round"/>
  </g>
</svg>
